# xmcd CD database file
#
# Track frame offsets:
#	150
#	20369
#	46401
#	67565
#	105452
#	124876
#	151588
#	175937
#	188298
#	203968
#	217377
#
# Disc length: 3276 seconds
#
# Revision: 1
# Processed by: cddbd v1.5.1PL0 Copyright (c) Steve Scherf et al.
# Submitted via: CDex 1.51
#
DISCID=8a0cca0b
DTITLE=Tab Benoit - Voice Of The Wetlands
DYEAR=2005
DGENRE=Blues
TTITLE0=Bayou Breeze
TTITLE1=Louisiana Sunshine
TTITLE2=Clean Water
TTITLE3=Fight For Your Right
TTITLE4=Kiddin Me
TTITLE5=Lightning And Thunder
TTITLE6=Make A Good Gumbo
TTITLE7=Weary Silent Night
TTITLE8=Me Donkey Want Water
TTITLE9=Heart Of Stone
TTITLE10=Louisiana Man
EXTD=YEAR: 2005
EXTT0=
EXTT1=
EXTT2=
EXTT3=
EXTT4=
EXTT5=
EXTT6=
EXTT7=
EXTT8=
EXTT9=
EXTT10=
PLAYORDER=
